<svg width="40" height="40" fill="none" xmlns="http://www.w3.org/2000/svg"><path d="M23.88 4.157a10.203 10.203 0 014.013-.823c1.379 0 2.742.28 4.013.823 1.27.544 2.42 1.338 3.387 2.336a10.74 10.74 0 012.252 3.475 10.967 10.967 0 010 8.171 10.742 10.742 0 01-2.252 3.476L21.196 36.16a1.666 1.666 0 01-2.393 0L4.706 21.613a10.867 10.867 0 01-3.04-7.56c0-2.827 1.088-5.547 3.04-7.561a10.304 10.304 0 017.4-3.158c2.786 0 5.447 1.142 7.4 3.158l.494.51.493-.51a10.426 10.426 0 013.388-2.336zm9.02 4.655a7.092 7.092 0 00-2.305-1.59 6.87 6.87 0 00-5.404 0 7.091 7.091 0 00-2.304 1.59l-1.69 1.745a1.667 1.667 0 01-2.394 0l-1.69-1.744a6.97 6.97 0 00-5.007-2.145c-1.867 0-3.67.765-5.006 2.145a7.534 7.534 0 00-2.1 5.24c0 1.976.761 3.86 2.1 5.242L20 32.605l12.9-13.31a7.409 7.409 0 001.552-2.398 7.634 7.634 0 000-5.686 7.411 7.411 0 00-1.553-2.399z" fill="#989898"/></svg>